<svg width="100%" height="100%" viewBox="0 0 44 44" version="1.1" xmlns="http://www.w3.org/2000/svg" xmlns:xlink="http://www.w3.org/1999/xlink" style="fill-rule:evenodd;clip-rule:evenodd;stroke-linejoin:round;stroke-miterlimit:2;"><g><g transform="matrix(1,0,0,1,-641,-338)"><path d="M663,376C671.837,376 679,368.837 679,360C679,351.163 671.837,344 663,344C654.163,344 647,351.163 647,360C647,368.837 654.163,376 663,376ZM663,352C661.895,352 661,352.888 661,354C661,355.105 661.888,356 663,356C664.105,356 665,355.112 665,354C665,352.895 664.112,352 663,352ZM663,358C661.895,358 661,358.887 661,360L661,366C661,367.105 661.888,368 663,368C664.105,368 665,367.113 665,366L665,360C665,358.895 664.112,358 663,358Z" style="fill:rgb(0,71,171);"/></g><g transform="matrix(1.13462,0,0,1.02317,-3.04039,-0.511753)"><path d="M23.879,22.025L23.879,27.839C23.879,28.943 23.071,29.839 22.076,29.839C21.08,29.839 20.272,28.943 20.272,27.839L20.272,22.025C20.272,20.921 21.08,20.025 22.076,20.025C23.071,20.025 23.879,20.921 23.879,22.025Z" style="fill:white;"/></g><g transform="matrix(1,0,0,1,0.00998359,0)"><circle cx="21.997" cy="16.02" r="2.058" style="fill:white;"/></g></g></svg>